<svg fill="none" height="75" viewBox="0 0 275 75" width="275" xmlns="http://www.w3.org/2000/svg"><path d="m46.504 9.764c.624.364.936 1.508.936 3.12 0 6.448-5.044 20.748-15.756 24.752 2.964-11.232 9.828-26.416 14.82-27.872zm-18.2 56.524c2.86 0 6.604-3.536 8.736-8.84 4.94-12.428 5.564-15.028 5.564-16.12 0-.936-.936-1.144-1.976-1.144-.988 0-2.028.208-2.34.26-1.82 4.68-4.68 9.256-7.02 9.36-.728-.468-1.04-1.664-1.04-3.38s.312-3.952.884-6.448c14.248-3.172 20.8-16.068 20.8-25.636 0-3.64-2.86-6.916-6.76-6.916-7.592 0-16.9 18.356-19.396 31.304-7.696 0-10.66-1.508-10.66-8.008 0-6.188 4.576-15.964 8.268-17.368.52.26.78.988.78 2.08 0 4.056-3.484 12.792-5.668 15.756.208.624.676.884 1.248.884 2.6 0 8.112-6.084 8.112-14.976 0-3.016-1.768-5.408-5.356-5.408-7.28 0-12.48 10.868-12.48 18.824 0 7.488 5.304 10.192 14.196 10.192h1.196c-.208 1.404-.312 2.756-.312 4.004 0 4.576 2.028 7.644 5.408 7.644 2.028 0 3.744-1.872 5.356-4.68-4.68 11.7-5.668 14.092-8.892 16.276-2.028-1.404-2.86-2.86-2.86-4.108 0-1.56 1.352-2.704 3.588-3.224 0-1.612-.78-1.768-2.34-1.768-2.34 0-6.032 1.3-6.032 5.044 0 3.692 4.212 6.396 8.996 6.396zm22.7581-16.848c-.572-.416-.832-1.404-.832-2.444 0-3.796 3.536-13.884 6.812-19.656.624.676 1.612 1.196 2.756 1.664-1.04 8.112-6.5 20.072-8.736 20.436zm17.004-19.084c3.224 0 5.356-.832 5.356-1.768 0-.26-.104-.468-.26-.624-1.404.312-3.432.52-5.46.52-1.04 0-2.08-.052-3.016-.208-.26-2.496-3.224-4.472-5.616-4.472-1.664 0-2.808 1.04-2.652 2.236-.416-.156-.832-.208-1.248-.208-1.04 0-2.132.624-3.276 2.288-3.224 4.732-6.292 12.064-6.292 16.848 0 4.264 2.132 6.5 5.46 6.5 6.708 0 12.688-14.508 13.52-21.372 1.3.156 2.496.26 3.484.26zm1.0742 19.084c-.572-.416-.832-1.404-.832-2.444 0-3.796 3.536-13.884 6.812-19.656.624.676 1.612 1.196 2.756 1.664-1.04 8.112-6.5 20.072-8.736 20.436zm17.004-19.084c3.224 0 5.356-.832 5.356-1.768 0-.26-.104-.468-.26-.624-1.404.312-3.432.52-5.46.52-1.04 0-2.08-.052-3.016-.208-.26-2.496-3.224-4.472-5.616-4.472-1.664 0-2.808 1.04-2.652 2.236-.416-.156-.832-.208-1.248-.208-1.04 0-2.132.624-3.276 2.288-3.224 4.732-6.2921 12.064-6.2921 16.848 0 4.264 2.1321 6.5 5.4601 6.5 6.708 0 12.688-14.508 13.52-21.372 1.3.156 2.496.26 3.484.26zm8.0941-2.652c.884 0 1.716 1.04 1.664 2.808 0 1.924-1.612 4.836-2.808 7.592-1.612 3.692-4.836 10.608-7.644 11.024-.26-1.404.988-5.98 3.588-12.272 2.86-7.072 4.16-9.152 5.2-9.152zm-1.248 14.04c-1.092 3.172-2.132 5.044-2.132 6.812 0 1.456 1.352 2.964 2.756 2.964 5.46 0 13.8836-18.928 13.8836-21.528 0-.26-.052-.364-.416-.312-3.224 7.8-9.0996 18.2-12.8956 19.708 1.04-3.276 3.068-8.112 4.94-12.896 3.2756-8.372 6.2396-15.704 8.3196-20.904 1.092-2.808 2.34-5.304 2.34-6.344 0-1.144-2.132-1.248-3.9-1.196-2.34 5.2-5.9276 13.936-8.7876 21.06-.208-2.964-2.444-4.628-4.264-4.628-3.536 0-6.448 5.616-8.84 11.7-1.56 3.9-2.704 8.216-2.704 11.18 0 2.392 2.184 4.316 3.9 4.316 2.496 0 5.096-4.108 7.8-9.932zm14.9196 9.776c4.316-.052 9.672-5.46 9.672-11.336 3.64-1.56 7.384-6.552 7.384-9.776 0-.572-.156-.728-.416-.728-2.392 5.824-4.992 7.8-7.488 8.788-.78-1.196-2.236-1.924-3.38-1.924-.624 0-1.144.208-1.508.624.416.78.728 1.768.728 2.86 0 4.212-3.016 8.008-5.2 9.1-.572-.832-.833-2.08-.78-3.692.052-2.236.572-4.992 1.404-8.164 8.268-2.392 17.94-21.008 17.94-26.104 0-1.82-1.456-3.588-4.316-3.588-6.916 0-11.96 10.452-15.86 21.216-2.288 6.344-3.797 12.428-3.797 16.38 0 4.888 3.173 6.344 5.617 6.344zm2.496-20.644c3.38-9.568 6.759-19.76 11.284-21.632.26.156.416.78.416 1.56-.104 5.356-8.112 20.124-13.104 24.284.416-1.352.884-2.756 1.404-4.212zm8.836 37.336c2.86 0 6.604-3.536 8.736-8.84.988-2.392 1.872-4.836 2.756-7.124 7.592-3.744 13.52-19.708 13.52-22.256 0-.26-.052-.364-.416-.312-3.172 7.748-6.292 14.872-12.324 20.436 2.184-5.928 3.848-10.868 4.524-12.844 1.612-4.94 3.536-9.568 3.536-10.972 0-.936-1.144-1.248-2.704-1.248-.468 0-.936 0-1.404.052-3.432 10.4-9.776 23.14-12.948 23.296-.416-2.756 6.76-16.016 6.76-19.552 0-2.912-1.612-3.952-2.756-3.952-1.352 0-2.86.312-4.42.26-.104.26-.156.468-.156.676 0 .572.364.936 1.404.936.52-.052 1.144-.104 1.976-.312-.104 3.692-7.28 15.704-7.28 20.956 0 2.6 2.548 3.536 4.212 3.536 2.756 0 5.408-4.108 7.904-9.62-1.196 3.12-2.704 7.436-4.212 11.596-1.82.52-3.536.832-4.784 1.144-7.072 1.456-9.152 4.732-9.152 7.904 0 3.224 2.548 6.24 7.228 6.24zm1.248-2.652c-2.34-.052-3.744-2.028-3.744-4.16 0-3.016 2.496-4.316 6.292-5.668.676-.26 1.456-.52 2.184-.832-1.872 5.148-3.64 9.672-4.732 10.66zm31.516-39.156c.26.208.364.624.364 1.196 0 3.796-4.576 14.404-9.256 15.184 1.456-6.396 6.448-16.224 8.892-16.38zm1.352 16.848c0-.52-.312-.624-.728-.572-1.716 2.964-4.628 5.876-8.112 6.292-1.3-.624-1.82-1.664-1.82-3.172 0-.468.052-.988.104-1.56.52.156.988.208 1.456.208 6.396 0 11.7-10.556 11.7-14.924 0-3.796-2.912-5.096-5.564-5.096-2.392 0-4.108 1.092-5.46 2.652-4.056 4.576-7.02 13.208-7.02 18.46 0 3.588 3.328 5.98 7.384 5.98 3.536 0 8.06-5.98 8.06-8.268zm13.634 17.16c6.396 0 8.736-4.888 10.972-9.932.26-.624.572-1.3.832-1.924 1.196.364 2.652.78 4.108.78 7.436 0 17.42-17.056 17.264-28.808 0-8.112-4.992-12.948-15.08-12.948-14.664 0-23.816 15.184-23.816 26.364 0 5.044 1.976 8.736 6.344 8.736 6.24 0 10.608-10.868 10.608-16.848 0-3.9-1.508-5.564-3.016-5.564-.312 0-.624.052-.936.208.052.364.052.78.052 1.248 0 5.564-3.172 16.328-6.708 19.136-1.248-.26-1.924-2.392-1.924-5.408 0-11.648 8.112-25.324 21.476-26.208 4.992.78 7.8 4.42 7.8 10.608 0 8.736-7.488 27.3-15.08 27.3h-.468c3.588-8.476 6.864-17.212 10.296-25.688.416-.988 1.352-3.432 1.768-4.368-.416-.468-1.04-.78-1.768-.78-1.768 0-3.9 1.456-5.616 5.356-3.38 7.748-6.5 16.484-9.308 23.504-1.144 2.756-3.432 9.516-5.772 12.376-2.184-.468-4.524-2.808-6.292-5.044-1.248.52-1.924 1.716-1.924 3.068 0 2.236 1.872 4.836 6.188 4.836zm42.007-8.892c2.86 0 6.5-4.316 9.88-10.296 2.132-3.9 5.304-10.972 5.304-12.948 0-.572-.572-.728-1.092-.624-3.796 9.204-9.36 17.576-13.416 21.008.78-2.496 2.86-6.968 4.524-11.388 1.716-4.524 3.224-8.944 3.224-10.244 0-1.924-1.664-2.08-3.796-2.028-.468 1.196-.988 2.6-1.56 4.004-.26-2.912-2.444-4.524-4.264-4.524-3.536 0-6.448 5.616-8.84 11.7-1.56 3.9-2.704 8.216-2.704 11.18 0 2.392 2.34 4.16 4.16 4.16 2.496 0 4.836-4.524 7.696-10.192-.988 3.016-2.184 5.772-2.184 7.072 0 1.404 1.508 3.12 3.068 3.12zm-8.32-2.392c-.26-1.404.78-6.032 2.652-10.608 3.536-8.736 4.836-10.816 5.876-10.816.884 0 1.716 1.04 1.664 2.808 0 1.924-1.56 4.888-2.808 7.592-2.652 5.408-5.512 10.14-7.384 11.024zm21.522 2.392c6.344 0 14.56-18.928 14.56-21.528 0-.26-.052-.364-.416-.312-3.276 7.904-8.736 17.68-13.104 19.76.104-1.404 1.456-4.472 2.964-7.696 1.872-4.004 3.9-8.32 3.9-9.984 0-2.392-1.248-2.392-5.096-3.64-.312-.104-.468-.364-.468-.78 0-.468.104-.78.364-1.3 1.716-3.38 3.068-5.46 4.212-7.072-.572-.988-1.56-1.508-2.548-1.508-1.976 0-4.108 2.236-4.108 7.748 0 2.236.468 3.328 2.34 4.524.624.416 1.092.728 1.092 1.456 0 1.612-7.436 13.624-7.436 16.172 0 2.184 1.716 4.16 3.744 4.16zm20.872 0c2.86 0 6.5-4.316 9.88-10.296 2.132-3.9 5.304-10.972 5.304-12.948 0-.572-.572-.728-1.092-.624-3.796 9.204-9.36 17.576-13.416 21.008.78-2.496 2.86-6.968 4.524-11.388 1.716-4.524 3.224-8.944 3.224-10.244 0-1.924-1.664-2.08-3.796-2.028-.468 1.196-.988 2.6-1.56 4.004-.26-2.912-2.444-4.524-4.264-4.524-3.536 0-6.448 5.616-8.84 11.7-1.56 3.9-2.704 8.216-2.704 11.18 0 2.392 2.34 4.16 4.16 4.16 2.496 0 4.836-4.524 7.696-10.192-.988 3.016-2.184 5.772-2.184 7.072 0 1.404 1.508 3.12 3.068 3.12zm-8.32-2.392c-.26-1.404.78-6.032 2.652-10.608 3.536-8.736 4.836-10.816 5.876-10.816.884 0 1.716 1.04 1.664 2.808 0 1.924-1.56 4.888-2.808 7.592-2.652 5.408-5.512 10.14-7.384 11.024zm19.494 2.392c4.524 0 7.176-4.784 7.176-10.868.052-4.888-1.664-10.348-1.664-12.48 0-3.068 5.2-5.356 8.268-6.76-.52-2.184-1.768-4.212-3.692-4.212-2.704 0-4.264 3.016-7.644 11.596-.052.104-.104.26-.104.364 0 .624.832.832.78 2.132-.364 11.024-1.872 16.432-3.536 17.992-.988-.624-2.496-2.756-3.432-4.42-1.144.104-1.768 1.144-1.768 2.392 0 1.976 1.716 4.264 5.616 4.264z" fill="#fff"/></svg>